# xmcd
#
# Track frame offsets:
#	150
#	16295
#	49900
#	81500
#
# Disc length: 1367 seconds
#
# Revision: 0
# Processed by: cddbd v1.5.2PL0 Copyright (c) Steve Scherf et al.
# Submitted via: dBpowerAMP V4.0
#
DISCID=2c055504
DTITLE=Nerio's Dubwork meets Darryl Pandy - Feel It [CDS]
DYEAR=2000
DGENRE=Dance
TTITLE0=Feel It (Nerios Dubwork Radio Edit)
TTITLE1=Feel It (Nerios Dubwork Vocal Mix)
TTITLE2=Feel It (Frank'o Mooiraghi Vocal Mix)
TTITLE3=Feel It (Nerios Dubwork Accadub)
EXTD=
EXTT0=
EXTT1=
EXTT2=
EXTT3=
PLAYORDER=
